<svg width="900" height="850" viewBox="0 0 900 850" fill="none" xmlns="http://www.w3.org/2000/svg">
<path d="M268.989 554.886L618.95 597.893C595.203 693.611 483.649 843.075 303.917 838.213C245.156 836.623 163.179 810.167 98.2613 754.224C29.2181 678.979 25.0266 657.909 9.53337 570.898C-2.65293 397.78 109.669 236.79 282.985 223.265C384.448 213.821 489.485 253.471 554.275 331.047L268.989 554.886Z" fill="#7BC0D6"/>
<path d="M312.344 536.092L581.839 338.281C551.276 301.648 519.902 272.79 490.205 253.727C436.044 218.958 383.342 208.377 337.725 206.544C162.363 199.496 51.6873 317.317 13.2901 443.037C-26.4134 573.034 21.155 745.559 178.786 819.838C203.679 831.569 251.189 853.381 329.86 849.556C397.122 846.286 442.009 825.352 474.542 807.081C507.075 788.811 546.216 756.883 572.748 713.898C589.945 686.039 605.058 663.835 633.913 587.334L312.344 536.092ZM136.685 391.505C87.9437 447.324 81.1307 511.383 86.0087 557.93C90.6681 602.391 118.051 701.884 240.549 743.753C282.029 757.931 353.809 758.555 417.54 729.112C460.71 709.169 495.395 671.413 514.241 636.239C518.297 628.668 529.017 605.415 531.985 592.938L602.452 602.499C587.079 648.757 575.786 671.608 558.026 698.815C522.822 752.745 476.514 788.948 413.567 811.517C348.596 834.812 269.021 840.026 205.67 815.678C66.6117 762.233 -13.3575 620.17 19.5378 466.62C38.7812 376.795 95.4726 310.767 170.007 270.172C293.362 202.988 443.313 215.997 541.515 334.176C515.395 354.976 515.938 354.601 479.617 384.248C451.326 355.256 425.641 338.242 402.042 327.906C289.682 278.695 185.427 335.685 136.685 391.505Z" fill="#34353D"/>
<path d="M512.481 602.678L255.044 551.74L438.248 399.4C366.484 312.841 223.769 327.447 149.297 415.359C87.6584 494.444 93.4228 606.721 162.838 679.093C196.147 712.364 255.318 736.574 331.55 731.57C412.133 725.449 478.86 676.084 512.481 602.678Z" fill="#E50D3B"/>
<path d="M304.377 740.596C240.738 740.596 191.679 713.859 155.526 677.748C91.8865 614.181 68.3264 498.805 141.309 409.135C183.178 360.156 244.324 331.814 308.803 331.503H309.886C362.415 330.295 411.218 347.448 454.436 392.561C456.503 394.72 460.647 399.554 460.647 399.554L269.058 544.58L517.17 590.684L514.611 599.739L512.523 605.818C484.851 679.469 416.457 733.276 332.092 739.92C325.141 740.37 311.328 740.596 304.377 740.596ZM308.667 351.655C250.245 351.959 196.927 377.628 158.963 421.984C93.2921 503.133 117.486 608.458 172.503 663.412C207.843 698.712 259.017 724.366 324.417 719.768C396.651 714.092 448.837 674.251 483.21 610.538L219.533 558.833L428.946 398.315C399.042 367.76 353.064 350.879 310.292 351.655H308.667Z" fill="white"/>
<path d="M591.644 484.148L698.934 226.326L865.31 311.749L760.353 567.241L591.644 484.148Z" fill="white"/>
<path d="M702.201 217.318L700.084 216.501C698.317 215.663 696.281 215.597 694.463 216.318C692.646 217.04 691.21 218.484 690.502 220.305L582.816 450.158C577.115 460.831 572.732 472.891 567.03 483.563C563.981 490.21 566.772 498.075 573.332 501.319C573.332 501.319 678.072 548.329 732.058 569.21C749.296 575.877 759.7 580.643 764.592 578.093C769.484 575.544 771.636 570.259 779.696 552.156C810.377 483.243 896.013 310.994 896.013 310.994C898.03 307.319 898.353 302.951 896.899 299.02C895.444 295.088 892.355 291.98 888.43 290.498L702.201 217.318ZM698.784 228.029L862.323 312.246L758.598 563.966L596.944 482.357L698.784 228.029Z" fill="#34353D"/>
<path d="M725.367 156.434L765.703 56.5713L824.105 91.202L788.342 189.05L725.367 156.434Z" fill="white"/>
<path d="M765.501 47.9377L764.606 47.5921C763.859 47.2378 762.998 47.2098 762.229 47.5149C761.461 47.8201 760.854 48.4308 760.554 49.2007L715.024 146.383C712.614 150.895 710.761 155.994 708.35 160.507C707.061 163.317 708.241 166.642 711.015 168.014C711.015 168.014 755.299 187.89 778.124 196.718C785.412 199.537 789.811 201.552 791.88 200.474C793.948 199.396 794.858 197.162 798.266 189.508C811.237 160.371 847.445 87.544 847.445 87.544C848.298 85.9902 848.434 84.1434 847.819 82.4812C847.204 80.819 845.898 79.5048 844.238 78.8784L765.501 47.9377ZM767.563 60.8086L822.452 91.5127L786.838 186.535L728.925 154.888L767.563 60.8086Z" fill="#34353D"/>
<path d="M506.901 182.061L578.677 15.1357L683.384 72.5648L613.413 234.092L506.901 182.061Z" fill="white"/>
<path d="M577.69 3.29904L576.231 2.73576C575.013 2.15823 573.61 2.11265 572.358 2.60997C571.105 3.10729 570.116 4.10266 569.628 5.35753L495.422 163.748C491.493 171.102 488.473 179.413 484.544 186.767C482.443 191.348 484.366 196.767 488.887 199.003C488.887 199.003 561.062 231.397 598.264 245.786C610.143 250.38 617.312 253.664 620.683 251.907C624.054 250.151 625.537 246.509 631.091 234.034C652.233 186.547 711.245 67.8505 711.245 67.8505C712.635 65.3181 712.857 62.3081 711.855 59.5991C710.853 56.89 708.724 54.748 706.019 53.7271L577.69 3.29904ZM578.796 18.1922L681.463 70.8621L612.671 234.155L510.484 181.978L578.796 18.1922Z" fill="#34353D"/>
</svg>
