<svg xmlns="http://www.w3.org/2000/svg" width="36" height="36" fill="none">
  <g clip-path="url(#a)">
    <path fill="#7D5DA9" d="M0 0h36v36H0V0Z"/>
    <path fill="#383A42" fill-rule="evenodd" d="M21.78 20.4c-1.06 1.44-2.55 2-4.66 1.53-2.11-.48-3.18-2.21-3.09-4.33.12-2.74 2.36-4.29 4.85-3.88 1.6.26 2.63 1.2 3.3 2.3l9.5-3.66C27.44 1.96 12.12.87 6.2 11.32c-4.86 8.6.62 18.88 9.71 20.45 6.94 1.2 13.42-2.48 15.78-8.59l-9.91-2.77Z" clip-rule="evenodd"/>
    <path fill="#7BC0D6" d="M12.1 10.24a9.99 9.99 0 0 0-3.88 6.85c-.22 1.98.15 6.58 5.01 9.59 4.6 2.83 11.53 1.06 13.92-3.96l3.04 1.03c-2.3 3.9-5.65 6.8-10.24 7.4-3.01.4-6.41-.38-8.9-2.05-5.47-3.67-7.67-10.31-4.8-16.7a12.71 12.71 0 0 1 8.3-7.06C20.5 3.6 26.9 6.46 30.02 11.88c-1.17.54-1.88.84-3.09 1.37a10.84 10.84 0 0 0-2.94-3.2 10.13 10.13 0 0 0-11.88.2Z"/>
    <path fill="#E50F3C" d="M11.05 17.25a6.93 6.93 0 0 1 2.68-4.75c3.72-2.86 8.3-1.78 10.65 1.86l2.13-.93c-2.45-3.86-6.6-5.59-10.92-4.4a9.3 9.3 0 0 0-6.03 5.1c-2.06 4.46-.35 9 3.52 11.85a9.61 9.61 0 0 0 13.54-3.45l-2.2-.73a7.29 7.29 0 0 1-4.66 3.26c-2.2.45-4.24-.3-5.45-1.03a7.15 7.15 0 0 1-3.26-6.78Z"/>
    <path fill="#fff" d="M15.34 14.13c-2.78 2.01-2.36 6.46.57 7.92 2 1 4.33.87 6.03-1.1l1.99.67c-1.2 1.6-2.59 2.76-4.93 3a6.7 6.7 0 0 1-6.9-9.4c.86-1.82 2.42-2.86 4.4-3.58 3.1-.8 5.82.6 7.42 2.96l-1.6.74a4.9 4.9 0 0 0-6.98-1.2Z"/>
  </g>
  <defs>
    <clipPath id="a">
      <path fill="#fff" d="M0 0h36v36H0z"/>
    </clipPath>
  </defs>
</svg>
